<svg width="14" height="15" viewBox="0 0 14 15" fill="none" xmlns="http://www.w3.org/2000/svg">
<path d="M12.24 0.700195H1.36C0.612 0.700195 0 1.3122 0 2.0602V12.9402C0 13.6882 0.612 14.3002 1.36 14.3002H12.24C12.988 14.3002 13.6 13.6882 13.6 12.9402V2.0602C13.6 1.3122 12.988 0.700195 12.24 0.700195ZM6.8 4.78019C8.296 4.78019 9.52 6.00419 9.52 7.50019C9.52 8.99619 8.296 10.2202 6.8 10.2202C5.304 10.2202 4.08 8.99619 4.08 7.50019C4.08 6.00419 5.304 4.78019 6.8 4.78019ZM1.7 12.9402C1.496 12.9402 1.36 12.8042 1.36 12.6002V6.82019H2.788C2.72 7.02419 2.72 7.29619 2.72 7.50019C2.72 9.74419 4.556 11.5802 6.8 11.5802C9.044 11.5802 10.88 9.74419 10.88 7.50019C10.88 7.29619 10.88 7.02419 10.812 6.82019H12.24V12.6002C12.24 12.8042 12.104 12.9402 11.9 12.9402H1.7ZM12.24 3.7602C12.24 3.9642 12.104 4.10019 11.9 4.10019H10.54C10.336 4.10019 10.2 3.9642 10.2 3.7602V2.4002C10.2 2.1962 10.336 2.0602 10.54 2.0602H11.9C12.104 2.0602 12.24 2.1962 12.24 2.4002V3.7602Z" fill="#1A1A1A"/>
</svg>
