<svg width="125" height="125" viewBox="0 0 125 125" fill="none" xmlns="http://www.w3.org/2000/svg">
<g clip-path="url(#clip0)">
<path d="M63.1438 50.2578C58.4068 50.2578 54.5527 54.1119 54.5527 58.8489C54.5527 60.271 54.9083 61.6809 55.5842 62.9315L62.674 75.7541C62.7684 75.9251 62.9482 76.031 63.1438 76.031C63.3394 76.031 63.5192 75.9251 63.6136 75.7541L70.7061 62.9273C71.3794 61.6809 71.7349 60.2709 71.7349 58.8488C71.7349 54.1119 67.8808 50.2578 63.1438 50.2578ZM63.1438 63.1444C60.7753 63.1444 58.8483 61.2174 58.8483 58.8489C58.8483 56.4804 60.7753 54.5534 63.1438 54.5534C65.5123 54.5534 67.4393 56.4804 67.4393 58.8489C67.4393 61.2174 65.5123 63.1444 63.1438 63.1444Z" fill="white"/>
</g>
<circle cx="62.5" cy="62.5" r="62" stroke="white" stroke-opacity="0.2"/>
<defs>
<clipPath id="clip0">
<rect width="25.7732" height="25.7732" fill="white" transform="translate(50.2578 50.2578)"/>
</clipPath>
</defs>
</svg>
