<svg width="97" height="97" viewBox="0 0 97 97" fill="#E6E6E6" xmlns="http://www.w3.org/2000/svg">
<circle cx="48.5" cy="48.5" r="47.75" stroke="url(#paint0_linear)" stroke-width="1.5"/>
<path d="M37.2601 46.34H35.4601V53H33.9001V46.34H32.1001V44.996H37.2601V46.34ZM44.4407 44.996V53H42.8807V49.904H42.5927L40.5527 53H38.6807L41.0567 49.76C40.8967 49.736 40.7407 49.696 40.5887 49.64C40.4367 49.576 40.3007 49.496 40.1807 49.4C39.8847 49.192 39.6607 48.92 39.5087 48.584C39.3567 48.24 39.2807 47.868 39.2807 47.468C39.2807 47.1 39.3447 46.756 39.4727 46.436C39.6087 46.116 39.8087 45.84 40.0727 45.608C40.2967 45.408 40.5647 45.256 40.8767 45.152C41.1887 45.048 41.6047 44.996 42.1247 44.996H44.4407ZM42.8807 46.268H42.4007C41.8887 46.268 41.5087 46.376 41.2607 46.592C41.0127 46.808 40.8887 47.1 40.8887 47.468C40.8807 47.852 41.0007 48.152 41.2487 48.368C41.5047 48.576 41.8967 48.68 42.4247 48.68H42.8807V46.268ZM49.029 44.996V48.092H52.413V44.996H53.973V53H52.413V49.436H49.029V53H47.469V44.996H49.029ZM57.0011 44.996H58.5611V50.372L62.9771 44.816H64.0571V53H62.4971V47.6L58.0811 53.156H57.0011V44.996Z" fill="url(#paint1_linear)"/>
<defs>
<linearGradient id="paint0_linear" x1="-6.93506e-08" y1="21.5556" x2="83.7727" y2="83.2828" gradientUnits="userSpaceOnUse">
<stop stop-color="#F04D19"/>
<stop offset="1" stop-color="#F03319"/>
</linearGradient>
<linearGradient id="paint1_linear" x1="3" y1="46.7" x2="90.0928" y2="51.6354" gradientUnits="userSpaceOnUse">
<stop stop-color="#F03319"/>
<stop offset="1" stop-color="#F04D19"/>
</linearGradient>
</defs>
</svg>
