<svg width="18" height="11" viewBox="0 0 18 11" fill="none" xmlns="http://www.w3.org/2000/svg">
<path d="M16.965 9.40165C16.9444 9.35731 16.9253 9.32054 16.9074 9.29108C16.6127 8.76022 16.0494 8.10862 15.218 7.33611L15.2004 7.31842L15.1916 7.30975L15.1827 7.30086H15.1738C14.7965 6.94114 14.5575 6.69927 14.4574 6.57544C14.2743 6.33955 14.2333 6.10078 14.3334 5.85885C14.4041 5.67606 14.6697 5.29004 15.1295 4.70025C15.3713 4.38768 15.5629 4.13717 15.7044 3.94843C16.7246 2.59209 17.1669 1.72536 17.0312 1.34792L16.9785 1.25972C16.9431 1.20662 16.8517 1.15804 16.7045 1.11374C16.5569 1.06953 16.3682 1.06222 16.1382 1.09168L13.5908 1.10927C13.5495 1.09465 13.4906 1.09602 13.4138 1.11374C13.3372 1.13146 13.2988 1.14035 13.2988 1.14035L13.2545 1.1625L13.2193 1.18911C13.1898 1.20671 13.1574 1.23766 13.1219 1.2819C13.0867 1.32599 13.0573 1.37773 13.0337 1.43668C12.7564 2.15021 12.441 2.8136 12.0871 3.42684C11.8689 3.79251 11.6686 4.10941 11.4856 4.37774C11.3028 4.64597 11.1495 4.8436 11.0257 4.97028C10.9018 5.09709 10.79 5.19867 10.6895 5.27541C10.5892 5.35218 10.5127 5.38462 10.4597 5.37275C10.4066 5.36089 10.3565 5.34912 10.3092 5.33734C10.2266 5.28424 10.1603 5.21203 10.1103 5.12063C10.06 5.02924 10.0262 4.91421 10.0085 4.77563C9.99088 4.63696 9.98047 4.51768 9.9775 4.41739C9.97474 4.31723 9.97601 4.17556 9.98199 3.99277C9.98813 3.80989 9.99088 3.68615 9.99088 3.62128C9.99088 3.39716 9.99525 3.15393 10.004 2.89152C10.0129 2.62911 10.0202 2.4212 10.0262 2.26803C10.0322 2.1147 10.035 1.95248 10.035 1.78147C10.035 1.61045 10.0246 1.47634 10.004 1.379C9.9837 1.28178 9.9525 1.18741 9.91139 1.09592C9.87003 1.00453 9.80949 0.93383 9.73005 0.883641C9.65046 0.833513 9.55151 0.793734 9.43375 0.764178C9.12119 0.693448 8.72317 0.655187 8.23953 0.649238C7.14277 0.637466 6.43805 0.708288 6.12551 0.861613C6.00168 0.926394 5.88962 1.01491 5.78943 1.12687C5.68326 1.25665 5.66845 1.32747 5.7451 1.33912C6.09896 1.39213 6.34947 1.51894 6.49691 1.71941L6.55004 1.82565C6.59137 1.9023 6.63264 2.03799 6.67394 2.23255C6.71517 2.42711 6.74178 2.64234 6.7535 2.8781C6.78293 3.30865 6.78293 3.6772 6.7535 3.98378C6.72397 4.2905 6.69609 4.52927 6.66947 4.70028C6.64286 4.8713 6.60308 5.00987 6.55004 5.11598C6.49691 5.22213 6.46156 5.287 6.44384 5.31054C6.42615 5.33409 6.4114 5.34893 6.39969 5.35475C6.32305 5.38412 6.24333 5.39909 6.16083 5.39909C6.0782 5.39909 5.97801 5.35776 5.8601 5.27516C5.74221 5.19257 5.61987 5.07912 5.49306 4.93462C5.36626 4.7901 5.22325 4.58813 5.06398 4.3287C4.90483 4.06926 4.7397 3.76264 4.56869 3.40884L4.4272 3.15225C4.33875 2.98719 4.21792 2.74684 4.06459 2.43142C3.91118 2.11588 3.77557 1.81065 3.65769 1.51581C3.61057 1.39198 3.53978 1.2977 3.44544 1.23283L3.40117 1.20621C3.37174 1.18267 3.32449 1.15767 3.25968 1.13102C3.19477 1.10441 3.12705 1.08533 3.05623 1.07358L0.632615 1.09118C0.384953 1.09118 0.216912 1.14729 0.12843 1.25935L0.0930189 1.31236C0.0753288 1.34188 0.0664062 1.38903 0.0664062 1.45394C0.0664062 1.51881 0.0840964 1.59843 0.119508 1.69271C0.47331 2.52424 0.858063 3.32618 1.27377 4.09866C1.68947 4.87114 2.05071 5.49339 2.35726 5.96486C2.66388 6.43667 2.97642 6.88196 3.29487 7.30052C3.61333 7.71922 3.82412 7.98755 3.92726 8.10543C4.03052 8.22353 4.11162 8.31183 4.17058 8.37078L4.39175 8.58304C4.53327 8.72459 4.7411 8.89412 5.01531 9.09162C5.28958 9.28925 5.59323 9.48381 5.9264 9.67561C6.25963 9.8671 6.64729 10.0234 7.08961 10.1442C7.53186 10.2652 7.96231 10.3138 8.38102 10.2903H9.39825C9.60455 10.2725 9.76085 10.2076 9.86708 10.0957L9.90228 10.0513C9.92595 10.0162 9.9481 9.96147 9.96855 9.88789C9.98924 9.81419 9.99953 9.73299 9.99953 9.64466C9.99349 9.39114 10.0128 9.16266 10.0569 8.95924C10.101 8.75588 10.1512 8.60255 10.2074 8.49929C10.2636 8.39613 10.327 8.30907 10.3975 8.2385C10.4682 8.16777 10.5186 8.12492 10.5482 8.11017C10.5775 8.09533 10.601 8.08526 10.6187 8.07922C10.7602 8.03207 10.9268 8.07774 11.1186 8.21644C11.3103 8.35502 11.4901 8.52612 11.6582 8.72948C11.8263 8.93303 12.0282 9.16139 12.2641 9.41491C12.5 9.66852 12.7064 9.85704 12.8832 9.98105L13.06 10.0872C13.1781 10.158 13.3315 10.2229 13.5202 10.2818C13.7086 10.3408 13.8737 10.3555 14.0154 10.3261L16.2797 10.2907C16.5037 10.2907 16.6779 10.2537 16.8016 10.1801C16.9254 10.1064 16.999 10.0252 17.0227 9.93684C17.0464 9.84842 17.0477 9.74811 17.0272 9.63596C17.0062 9.52408 16.9856 9.44586 16.965 9.40165Z" fill="#fff"/>
</svg>
